<?xml version="1.0" encoding="UTF-8"?>
<!DOCTYPE svg PUBLIC "-//W3C//DTD SVG 1.1//EN" "http://www.w3.org/Graphics/SVG/1.1/DTD/svg11.dtd">
<!-- Creator: CorelDRAW 2020 (64-Bit) -->
<svg xmlns="http://www.w3.org/2000/svg" xml:space="preserve" width="77.0919mm" height="42.0848mm" version="1.1" style="shape-rendering:geometricPrecision; text-rendering:geometricPrecision; image-rendering:optimizeQuality; fill-rule:evenodd; clip-rule:evenodd"
viewBox="0 0 820.05 447.67"
 xmlns:xlink="http://www.w3.org/1999/xlink"
 xmlns:xodm="http://www.corel.com/coreldraw/odm/2003">
 <defs>
  <style type="text/css">
   <![CDATA[
    .str0 {stroke:#00A0E3;stroke-width:2.66;stroke-miterlimit:22.9256}
    .fil0 {fill:none}
   ]]>
  </style>
 </defs>
 <g id="Capa_x0020_1">
  <metadata id="CorelCorpID_0Corel-Layer"/>
  <g id="_2464057213712">
   <path class="fil0 str0" d="M287.05 129.72c19.32,6.14 36.2,6.31 36.06,44.97 -0.09,26.45 -0.19,52.99 -0.06,79.43 0.07,14.1 3.91,21.73 18.47,22.82 41.23,3.11 88.12,-11.2 96.14,29.19 2.07,10.41 0.69,100.03 0.86,118.7 0.13,14.56 5.57,20.68 20.73,20.97 55.83,1.1 113.28,0.13 169.27,0 61.43,-0.15 93.05,-6.21 130.65,-35.11 107.21,-82.42 66.79,-262.66 -98.16,-274.55 -15.92,-43.53 -35.12,-70.72 -64.35,-92.76 -30.95,-23.34 -66.61,-39.8 -119.23,-41.91 -68.96,-2.77 -127.6,29.27 -163.2,75.84 -7.48,9.78 -25.57,38.18 -27.19,52.39z"/>
   <path class="fil0 str0" d="M278.69 300.01c-23.81,6.66 -17.67,32.1 -17.68,55.97 -0.01,14.69 -1.93,60.33 0.98,71.36 5.85,22.14 35.24,16.67 60.05,16.65 98.05,-0.08 93.38,9.63 93.48,-57.57 0.02,-13.97 1.81,-61.19 -1.22,-71.27 -6.56,-21.8 -36.38,-16.54 -60.08,-16.42 -14.92,0.08 -65.27,-1.59 -75.54,1.28z"/>
   <path class="fil0 str0" d="M187.24 298.31c-10.55,2.1 -15.05,6.2 -16.35,16.85 -0.74,6.03 -0.74,26.12 0.27,31.56 1.72,9.22 7.68,13.85 17.82,14.91 6.37,0.66 27.62,0.7 33.64,-0.36 9.34,-1.64 14.64,-7.24 15.62,-17.18 2.18,-21.92 3.39,-43.95 -18.58,-46.27 -8.22,-0.87 -25.18,-0.95 -32.43,0.49z"/>
   <path class="fil0 str0" d="M17.49 360.31c-8.88,1.63 -14.13,5.26 -15.59,14.53 -0.82,5.2 -0.76,24.59 0.16,29.73 1.48,8.25 6.4,13.33 15.15,14.55 5.44,0.76 26.26,0.79 31.64,-0.01 8.52,-1.26 14.13,-5.75 15.61,-14.39 0.89,-5.2 0.81,-24.96 -0.14,-30.12 -1.6,-8.64 -6.35,-13.25 -15.4,-14.63 -7.6,-1.16 -24.35,-0.96 -31.42,0.34z"/>
   <g>
    <path class="fil0 str0" d="M39.43 272.62c0,44.91 -6.65,66.88 32.08,66.77 17.66,-0.05 58.72,3.28 70.07,-4.5 14.49,-9.94 9.57,-41.11 9.61,-60.95 0.08,-44.37 -8.71,-40.48 -58.68,-40.48 -42.52,0 -53.08,-4.03 -53.08,39.15z"/>
    <path class="fil0 str0" d="M206.87 380.4c-6.31,1.33 -8.85,3.58 -9.79,9.91 -0.54,3.64 -0.53,16.4 0.34,19.81 2.35,9.24 19.89,10.55 31.93,7.64 9.97,-2.41 9.88,-19.24 7.73,-29.33 -2.21,-10.36 -19.26,-10.34 -30.22,-8.04z"/>
   </g>
   <path class="fil0 str0" d="M188.31 152.55c-23.32,4.61 -19.74,22.57 -19.72,43.33 0.05,74.37 -9.6,80.69 45.69,80.66 83.51,-0.04 85.42,8.89 85.46,-43.62 0.06,-74.7 9.51,-81.21 -46.27,-81.23 -15.71,-0 -52.42,-1.67 -65.15,0.85z"/>
   <path class="fil0 str0" d="M103.78 360.79c-14.08,2.53 -19.43,9.43 -19.62,24.24 -0.44,35.91 -6.87,59.55 26.5,59.66 39.37,0.13 62.58,6.98 62.79,-25.15 0.23,-36.06 7.06,-59.04 -26.3,-59.21 -10.3,-0.05 -35.09,-1.04 -43.37,0.45z"/>
   <path class="fil0 str0" d="M105.02 158.35c-8.73,1.64 -12.64,5.13 -13.99,13.7 -0.78,4.94 -0.75,22.8 0.09,27.73 1.41,8.29 6.25,11.68 15.3,12.48 19.93,1.77 39.85,2.74 41.79,-15.13 1.91,-17.55 2.95,-37.26 -15.19,-39.19 -7.29,-0.78 -21.48,-0.81 -28,0.41z"/>
  </g>
 </g>
</svg>
