<?xml version="1.0" encoding="UTF-8"?>
<!DOCTYPE svg PUBLIC "-//W3C//DTD SVG 1.1//EN" "http://www.w3.org/Graphics/SVG/1.1/DTD/svg11.dtd">
<!-- Creator: CorelDRAW 2020 (64-Bit) -->
<svg xmlns="http://www.w3.org/2000/svg" xml:space="preserve" width="77.0084mm" height="41.9602mm" version="1.1" style="shape-rendering:geometricPrecision; text-rendering:geometricPrecision; image-rendering:optimizeQuality; fill-rule:evenodd; clip-rule:evenodd"
viewBox="0 0 782.77 426.52"
 xmlns:xlink="http://www.w3.org/1999/xlink"
 xmlns:xodm="http://www.corel.com/coreldraw/odm/2003">
 <defs>
  <style type="text/css">
   <![CDATA[
    .str0 {stroke:#FEFEFE;stroke-width:0.77;stroke-miterlimit:22.9256}
    .fil1 {fill:#0077A4}
    .fil2 {fill:#009DD9}
    .fil0 {fill:#17406D}
    .fil3 {fill:#3D7EC6}
   ]]>
  </style>
 </defs>
 <g id="Capa_x0020_1">
  <metadata id="CorelCorpID_0Corel-Layer"/>
  <g id="_2464058946784">
   <path class="fil0 str0" d="M273.73 123.22c18.48,5.87 34.63,6.04 34.5,43.03 -0.09,25.3 -0.18,50.69 -0.05,75.99 0.07,13.49 3.74,20.78 17.67,21.83 39.44,2.98 84.3,-10.72 91.98,27.93 1.98,9.96 0.66,95.7 0.82,113.56 0.13,13.93 5.33,19.78 19.83,20.07 53.41,1.05 108.38,0.13 161.94,0 58.77,-0.14 89.03,-5.94 124.99,-33.59 102.57,-78.85 63.9,-251.29 -93.91,-262.66 -15.23,-41.64 -33.6,-67.66 -61.56,-88.74 -29.61,-22.33 -63.73,-38.08 -114.07,-40.1 -65.97,-2.65 -122.08,28 -156.14,72.56 -7.15,9.36 -24.46,36.53 -26.01,50.12z"/>
   <path class="fil1 str0" d="M265.73 286.14c-22.78,6.37 -16.91,30.71 -16.92,53.55 -0.01,14.05 -1.85,57.72 0.94,68.27 5.6,21.18 33.72,15.95 57.45,15.93 93.8,-0.08 89.34,9.22 89.43,-55.08 0.02,-13.37 1.74,-58.54 -1.17,-68.18 -6.28,-20.85 -34.81,-15.82 -57.47,-15.71 -14.28,0.07 -62.44,-1.52 -72.26,1.23z"/>
   <path class="fil0 str0" d="M178.25 284.51c-10.09,2.01 -14.4,5.93 -15.64,16.12 -0.71,5.77 -0.71,24.99 0.26,30.19 1.64,8.82 7.35,13.25 17.05,14.26 6.1,0.64 26.42,0.67 32.18,-0.34 8.94,-1.57 14,-6.93 14.95,-16.44 2.08,-20.97 3.24,-42.04 -17.78,-44.27 -7.86,-0.83 -24.09,-0.91 -31.03,0.47z"/>
   <path class="fil0 str0" d="M15.85 343.83c-8.5,1.56 -13.52,5.04 -14.91,13.9 -0.78,4.97 -0.73,23.53 0.15,28.44 1.41,7.89 6.12,12.75 14.49,13.92 5.21,0.72 25.12,0.75 30.27,-0.01 8.15,-1.2 13.52,-5.5 14.94,-13.76 0.86,-4.98 0.78,-23.88 -0.14,-28.82 -1.53,-8.27 -6.08,-12.68 -14.73,-14 -7.27,-1.11 -23.29,-0.92 -30.06,0.32z"/>
   <g>
    <path class="fil2 str0" d="M36.84 259.94c0,42.97 -6.37,63.99 30.69,63.88 16.89,-0.05 56.18,3.14 67.04,-4.31 13.87,-9.51 9.16,-39.33 9.19,-58.31 0.08,-42.45 -8.34,-38.72 -56.14,-38.72 -40.68,0 -50.78,-3.85 -50.78,37.46z"/>
    <path class="fil2 str0" d="M197.02 363.05c-6.04,1.27 -8.47,3.43 -9.36,9.49 -0.52,3.49 -0.5,15.69 0.33,18.95 2.24,8.84 19.03,10.1 30.55,7.31 9.54,-2.31 9.45,-18.4 7.39,-28.06 -2.11,-9.92 -18.42,-9.9 -28.91,-7.69z"/>
   </g>
   <path class="fil1 str0" d="M179.27 145.06c-22.31,4.41 -18.88,21.6 -18.87,41.45 0.04,71.15 -9.19,77.2 43.71,77.17 79.9,-0.04 81.72,8.5 81.76,-41.73 0.06,-71.47 9.1,-77.7 -44.27,-77.71 -15.03,-0 -50.15,-1.59 -62.33,0.81z"/>
   <path class="fil3 str0" d="M98.4 344.28c-13.47,2.42 -18.59,9.02 -18.77,23.19 -0.42,34.35 -6.57,56.97 25.35,57.08 37.66,0.13 59.88,6.68 60.07,-24.06 0.22,-34.5 6.76,-56.49 -25.16,-56.65 -9.85,-0.05 -33.57,-0.99 -41.49,0.43z"/>
   <path class="fil3 str0" d="M99.59 150.61c-8.35,1.57 -12.1,4.91 -13.38,13.1 -0.74,4.72 -0.72,21.81 0.09,26.53 1.35,7.93 5.98,11.18 14.64,11.94 19.07,1.69 38.12,2.62 39.98,-14.47 1.82,-16.79 2.82,-35.65 -14.53,-37.5 -6.97,-0.74 -20.55,-0.78 -26.79,0.39z"/>
  </g>
 </g>
</svg>
